<!DOCTYPE svg PUBLIC "-//W3C//DTD SVG 1.1//EN" "http://www.w3.org/Graphics/SVG/1.1/DTD/svg11.dtd">
<!-- Uploaded to: SVG Repo, www.svgrepo.com, Transformed by: SVG Repo Mixer Tools -->
<svg height="800px" width="800px" version="1.1" id="Layer_1" xmlns="http://www.w3.org/2000/svg" xmlns:xlink="http://www.w3.org/1999/xlink" viewBox="0 0 512 512" xml:space="preserve" fill="#000000">
<g id="SVGRepo_bgCarrier" stroke-width="0"/>
<g id="SVGRepo_tracerCarrier" stroke-linecap="round" stroke-linejoin="round"/>
<g id="SVGRepo_iconCarrier"> <circle style="fill:#ffffff00;" cx="256" cy="256" r="256"/> <polygon style="fill:#cbdcd5;" points="175.213,344.558 138.328,278.837 158.867,278.837 113.699,198.358 68.531,278.837 89.071,278.837 52.186,344.558 113.699,367.064 "/> <polygon style="fill:#05a089;" points="327.984,361.21 281.753,278.837 302.294,278.837 257.125,198.358 211.957,278.837 232.498,278.837 186.267,361.21 "/> <polygon style="fill:#cbdcd5;" points="459.814,344.558 422.929,278.837 443.469,278.837 398.301,198.358 353.133,278.837 373.672,278.837 336.787,344.558 398.301,367.064 "/> <path style="fill:#eff4f7;" d="M256,351.31c-14.557,0-14.539-6.752-29.096-6.752c-14.559,0-14.559,6.752-29.118,6.752 c-14.559,0-14.559-6.752-29.118-6.752s-14.559,6.752-29.118,6.752c-14.56,0-14.56-6.752-29.119-6.752 c-14.561,0-14.561,6.752-29.123,6.752c-14.561,0-14.561-6.752-29.123-6.752C86.469,423.157,164.917,478.242,256,478.242 s169.531-55.084,203.814-133.684c-14.561,0-14.561,6.752-29.123,6.752c-14.561,0-14.561-6.752-29.123-6.752 c-14.56,0-14.56,6.752-29.119,6.752s-14.559-6.752-29.118-6.752c-14.559,0-14.559,6.752-29.118,6.752 c-14.559,0-14.559-6.752-29.118-6.752C270.539,344.558,270.557,351.31,256,351.31z"/> <path style="fill:#36dba3;" d="M459.49,175.136H223.648c-15.512,0-28.132-12.62-28.132-28.132s12.62-28.132,28.132-28.132h64.703 c4.654,0,8.44-3.785,8.44-8.44c0-4.654-3.785-8.44-8.44-8.44H104.486c-4.661,0-8.44-3.778-8.44-8.44s3.779-8.44,8.44-8.44h183.865 c13.961,0,25.319,11.359,25.319,25.319s-11.357,25.319-25.319,25.319h-64.703c-6.205,0-11.253,5.048-11.253,11.253 c0,6.205,5.048,11.253,11.253,11.253H459.49c4.661,0,8.44,3.778,8.44,8.44S464.152,175.136,459.49,175.136z"/> <path style="fill:#cbdcd5;" d="M372.747,113.245c-4.661,0-8.44,3.778-8.44,8.44v11.253c0,4.662,3.779,8.44,8.44,8.44 c4.661,0,8.44-3.778,8.44-8.44v-11.253C381.187,117.023,377.408,113.245,372.747,113.245z"/> <path style="fill:#eff4f7;" d="M406.506,113.245c-4.661,0-8.44,3.778-8.44,8.44v11.253c0,4.662,3.779,8.44,8.44,8.44 s8.44-3.778,8.44-8.44v-11.253C414.945,117.023,411.166,113.245,406.506,113.245z"/> <circle style="fill:#cbdcd5;" cx="440.264" cy="132.94" r="8.44"/> <path style="fill:#eff4f7;" d="M338.989,113.245c-4.661,0-8.44,3.778-8.44,8.44v11.253c0,4.662,3.779,8.44,8.44,8.44 c4.661,0,8.44-3.778,8.44-8.44v-11.253C347.429,117.023,343.65,113.245,338.989,113.245z"/> <path style="fill:#cbdcd5;" d="M220.835,40.103c-4.661,0-8.44,3.778-8.44,8.44v11.253c0,4.662,3.779,8.44,8.44,8.44 s8.44-3.778,8.44-8.44V48.542C229.275,43.88,225.496,40.103,220.835,40.103z"/> <path style="fill:#eff4f7;" d="M254.593,40.103c-4.661,0-8.44,3.778-8.44,8.44v11.253c0,4.662,3.779,8.44,8.44,8.44 s8.44-3.778,8.44-8.44V48.542C263.033,43.88,259.254,40.103,254.593,40.103z"/> <g> <path style="fill:#cbdcd5;" d="M288.352,40.103c-4.661,0-8.44,3.778-8.44,8.44v11.253c0,4.662,3.779,8.44,8.44,8.44 s8.44-3.778,8.44-8.44V48.542C296.791,43.88,293.013,40.103,288.352,40.103z"/> <circle style="fill:#cbdcd5;" cx="153.319" cy="59.797" r="8.44"/> </g> <path style="fill:#eff4f7;" d="M187.077,40.103c-4.661,0-8.44,3.778-8.44,8.44v11.253c0,4.662,3.779,8.44,8.44,8.44 s8.44-3.778,8.44-8.44V48.542C195.516,43.88,191.738,40.103,187.077,40.103z"/> </g>
</svg>